<svg xmlns="http://www.w3.org/2000/svg" width="19" height="19" viewBox="0 0 19 19">
    <g fill="none" fill-rule="evenodd">
        <path d="M0 0h19v19H0z"/>
        <g fill="#9D9D9D">
            <circle cx="14.324" cy="7.793" r="1"/>
            <path d="M16.031 1.484h-.965V.742a.742.742 0 1 0-1.484 0v.742h-3.377V.742a.742.742 0 1 0-1.484 0v.742H5.38V.742a.742.742 0 1 0-1.485 0v.742H2.97A2.972 2.972 0 0 0 0 4.454V16.03A2.972 2.972 0 0 0 2.969 19h5.677a.742.742 0 1 0 0-1.484H2.97a1.486 1.486 0 0 1-1.485-1.485V4.453c0-.818.666-1.484 1.485-1.484h.927v.742a.742.742 0 1 0 1.485 0v-.742h3.34v.742a.742.742 0 1 0 1.484 0v-.742h3.377v.742a.742.742 0 1 0 1.484 0v-.742h.965c.819 0 1.485.666 1.485 1.484v4.23a.742.742 0 1 0 1.484 0v-4.23a2.972 2.972 0 0 0-2.969-2.969z"/>
            <path fill-rule="nonzero" d="M14.51 10.02a4.495 4.495 0 0 0-4.49 4.49A4.495 4.495 0 0 0 14.51 19 4.495 4.495 0 0 0 19 14.51a4.495 4.495 0 0 0-4.49-4.49zm0 7.496a3.01 3.01 0 0 1-3.006-3.006 3.01 3.01 0 0 1 3.006-3.006 3.01 3.01 0 0 1 3.006 3.006 3.01 3.01 0 0 1-3.006 3.006z"/>
            <path d="M15.586 13.768h-.334v-.78a.742.742 0 1 0-1.484 0v1.522c0 .41.332.742.742.742h1.076a.742.742 0 1 0 0-1.484z"/>
            <circle cx="11.096" cy="7.793" r="1"/>
            <circle cx="7.867" cy="11.021" r="1"/>
            <circle cx="4.639" cy="7.793" r="1"/>
            <circle cx="4.639" cy="11.021" r="1"/>
            <circle cx="4.639" cy="14.25" r="1"/>
            <circle cx="7.867" cy="14.25" r="1"/>
            <circle cx="7.867" cy="7.793" r="1"/>
        </g>
    </g>
</svg>
