<svg xmlns="http://www.w3.org/2000/svg" width="16" height="16" viewBox="0 0 16 16">
    <g fill="none" fill-rule="evenodd">
        <path d="M0 0H16V16H0z" transform="matrix(1 0 0 -1 0 16)" />
        <path
        fill="#9D9D9D"
        d="M8.503 6.53L2.518 12.24c-.165.158-.385.244-.62.244-.234 0-.453-.086-.618-.244l-.524-.5C.59 11.584.5 11.374.5 11.15c0-.225.09-.434.256-.591l7.126-6.802c.166-.157.386-.244.621-.243.236 0 .456.086.622.243l7.12 6.795c.164.157.255.367.255.59 0 .225-.09.434-.256.592l-.524.5c-.341.326-.897.326-1.238 0L8.503 6.529z"
        transform="matrix(1 0 0 -1 0 16)"
        />
    </g>
</svg>